<svg width="15" height="14" viewBox="0 0 15 14" fill="none" xmlns="http://www.w3.org/2000/svg">
<path d="M8.5293 12.9414L7.88477 13.5859C7.5918 13.8496 7.15234 13.8496 6.88867 13.5859L1.20508 7.87305C0.912109 7.60938 0.912109 7.16992 1.20508 6.90625L6.88867 1.19336C7.15234 0.929688 7.62109 0.929688 7.88477 1.19336L8.5293 1.83789C8.82227 2.13086 8.79297 2.57031 8.5293 2.86328L4.98438 6.20312H13.4219C13.8027 6.20312 14.125 6.52539 14.125 6.90625V7.84375C14.125 8.25391 13.8027 8.54688 13.4219 8.54688H4.98438L8.5293 11.916C8.79297 12.209 8.82227 12.6484 8.5293 12.9414Z" fill="black"/>
</svg>
