<svg width="12" height="16" viewBox="0 0 12 16" fill="none" xmlns="http://www.w3.org/2000/svg">
<path d="M5.36905 15.582C1.09171 9.42969 0.329987 8.78516 0.329987 6.5C0.329987 3.39453 2.82022 0.875 5.95499 0.875C9.06046 0.875 11.58 3.39453 11.58 6.5C11.58 8.78516 10.789 9.42969 6.51163 15.582C6.24796 15.9922 5.63272 15.9922 5.36905 15.582ZM5.95499 8.84375C7.24405 8.84375 8.29874 7.81836 8.29874 6.5C8.29874 5.21094 7.24405 4.15625 5.95499 4.15625C4.63663 4.15625 3.61124 5.21094 3.61124 6.5C3.61124 7.81836 4.63663 8.84375 5.95499 8.84375Z" fill="black"/>
</svg>
