<svg width="16" height="17" viewBox="0 0 16 17" fill="none" xmlns="http://www.w3.org/2000/svg">
<path d="M8.34014 2.27776C9.36344 2.27776 10.0316 2.28273 10.3445 2.29267C10.6575 2.3026 11.0176 2.31254 11.4249 2.32247C11.7925 2.34234 12.0856 2.37711 12.3042 2.42679C12.5227 2.47646 12.7016 2.5311 12.8407 2.59071C13.0195 2.66026 13.176 2.73725 13.3101 2.8217C13.4442 2.90615 13.5758 3.01791 13.705 3.157C13.8441 3.28616 13.9583 3.42028 14.0477 3.55937C14.1372 3.69845 14.2166 3.85741 14.2862 4.03624C14.3458 4.16539 14.4004 4.34174 14.4501 4.56527C14.4998 4.78881 14.5346 5.08437 14.5544 5.45196C14.5644 5.84936 14.5743 6.20702 14.5842 6.52493C14.5942 6.84285 14.5991 7.51345 14.5991 8.53675C14.5991 9.56004 14.5942 10.2282 14.5842 10.5411C14.5743 10.8541 14.5644 11.2142 14.5544 11.6215C14.5346 11.9891 14.4998 12.2822 14.4501 12.5008C14.4004 12.7193 14.3458 12.8932 14.2862 13.0224C14.2166 13.2012 14.1372 13.3601 14.0477 13.4992C13.9583 13.6383 13.8441 13.7724 13.705 13.9016C13.5758 14.0407 13.4442 14.1524 13.3101 14.2369C13.176 14.3213 13.0195 14.3983 12.8407 14.4679C12.7016 14.5275 12.5227 14.5821 12.3042 14.6318C12.0856 14.6815 11.7925 14.7163 11.4249 14.7361C11.0176 14.756 10.6575 14.7684 10.3445 14.7734C10.0316 14.7783 9.36344 14.7808 8.34014 14.7808C7.31685 14.7808 6.64873 14.7783 6.33578 14.7734C6.02283 14.7684 5.66269 14.756 5.25536 14.7361C4.88777 14.7163 4.59469 14.6815 4.37612 14.6318C4.15755 14.5821 3.98369 14.5275 3.85454 14.4679C3.67571 14.3983 3.51675 14.3213 3.37766 14.2369C3.23857 14.1524 3.10445 14.0407 2.9753 13.9016C2.83621 13.7724 2.72444 13.6383 2.64 13.4992C2.55555 13.3601 2.47856 13.2012 2.40901 13.0224C2.3494 12.8932 2.29476 12.7193 2.24509 12.5008C2.19541 12.2822 2.15567 11.9891 2.12587 11.6215C2.11593 11.2142 2.106 10.8516 2.09606 10.5337C2.08613 10.2157 2.08116 9.55011 2.08116 8.53675C2.08116 7.52339 2.08613 6.85527 2.09606 6.53238C2.106 6.2095 2.11593 5.84936 2.12587 5.45196C2.15567 5.08437 2.19541 4.79129 2.24509 4.57272C2.29476 4.35416 2.3494 4.17533 2.40901 4.03624C2.47856 3.85741 2.55555 3.70094 2.64 3.56682C2.72444 3.4327 2.83621 3.30106 2.9753 3.1719C3.10445 3.03282 3.23609 2.91856 3.37021 2.82915C3.50433 2.73974 3.66081 2.66026 3.83964 2.59071C3.97872 2.5311 4.15755 2.47646 4.37612 2.42679C4.59469 2.37711 4.88777 2.34234 5.25536 2.32247C5.66269 2.31254 6.02283 2.3026 6.33578 2.29267C6.64873 2.28273 7.31685 2.27776 8.34014 2.27776ZM8.34014 0.906748C7.30691 0.906748 6.62637 0.911716 6.29852 0.92165C5.97067 0.931585 5.60308 0.94152 5.19575 0.951455C4.78842 0.971325 4.43821 1.01106 4.14513 1.07067C3.85205 1.13028 3.5863 1.20976 3.34786 1.30911C3.09949 1.40846 2.86602 1.52768 2.64745 1.66677C2.42888 1.80586 2.21031 1.97972 1.99175 2.18835C1.78311 2.40692 1.60925 2.62548 1.47016 2.84405C1.33108 3.06262 1.21186 3.29112 1.11251 3.52956C1.01316 3.77793 0.933679 4.04866 0.87407 4.34174C0.81446 4.63482 0.774721 4.98502 0.754851 5.39235C0.744916 5.79968 0.734981 6.16728 0.725046 6.49513C0.715111 6.82298 0.710144 7.50352 0.710144 8.53675C0.710144 9.56998 0.715111 10.2505 0.725046 10.5784C0.734981 10.9062 0.744916 11.2738 0.754851 11.6811C0.774721 12.0885 0.81446 12.4387 0.87407 12.7318C0.933679 13.0248 1.01316 13.2906 1.11251 13.529C1.21186 13.7774 1.33108 14.0109 1.47016 14.2294C1.60925 14.448 1.78311 14.6666 1.99175 14.8851C2.21031 15.0938 2.42888 15.2676 2.64745 15.4067C2.86602 15.5458 3.09949 15.665 3.34786 15.7644C3.5863 15.8637 3.85205 15.9432 4.14513 16.0028C4.43821 16.0624 4.78842 16.1022 5.19575 16.122C5.60308 16.132 5.97067 16.1419 6.29852 16.1518C6.62637 16.1618 7.30691 16.1667 8.34014 16.1667C9.37337 16.1667 10.0539 16.1618 10.3818 16.1518C10.7096 16.1419 11.0772 16.132 11.4845 16.122C11.8919 16.1022 12.2421 16.0624 12.5352 16.0028C12.8282 15.9432 13.094 15.8637 13.3324 15.7644C13.5808 15.665 13.8143 15.5458 14.0328 15.4067C14.2514 15.2676 14.47 15.0938 14.6885 14.8851C14.8972 14.6666 15.071 14.448 15.2101 14.2294C15.3492 14.0109 15.4635 13.7774 15.5529 13.529C15.6522 13.2906 15.7342 13.0248 15.7988 12.7318C15.8633 12.4387 15.9056 12.0885 15.9254 11.6811C15.9354 11.2738 15.9428 10.9062 15.9478 10.5784C15.9528 10.2505 15.9552 9.56998 15.9552 8.53675C15.9552 7.50352 15.9528 6.82298 15.9478 6.49513C15.9428 6.16728 15.9354 5.79968 15.9254 5.39235C15.9056 4.98502 15.8633 4.63482 15.7988 4.34174C15.7342 4.04866 15.6522 3.7829 15.5529 3.54446C15.4635 3.29609 15.3492 3.06262 15.2101 2.84405C15.071 2.62548 14.8972 2.40692 14.6885 2.18835C14.47 1.97972 14.2514 1.80586 14.0328 1.66677C13.8143 1.52768 13.5858 1.40846 13.3473 1.30911C13.099 1.20976 12.8282 1.13028 12.5352 1.07067C12.2421 1.01106 11.8919 0.971325 11.4845 0.951455C11.0772 0.94152 10.7096 0.931585 10.3818 0.92165C10.0539 0.911716 9.37337 0.906748 8.34014 0.906748ZM8.34014 4.61743C7.79373 4.61743 7.28705 4.72175 6.82011 4.93038C6.34323 5.12908 5.92596 5.40726 5.56831 5.76491C5.21065 6.12257 4.93247 6.53983 4.73378 7.01671C4.52514 7.48365 4.42083 7.99033 4.42083 8.53675C4.42083 9.08317 4.52514 9.58985 4.73378 10.0568C4.93247 10.5337 5.21065 10.9509 5.56831 11.3086C5.92596 11.6662 6.34323 11.9444 6.82011 12.1431C7.28705 12.3517 7.79373 12.4561 8.34014 12.4561C8.88656 12.4561 9.39324 12.3517 9.86018 12.1431C10.3371 11.9444 10.7543 11.6662 11.112 11.3086C11.4696 10.9509 11.7478 10.5337 11.9465 10.0568C12.1551 9.58985 12.2595 9.08317 12.2595 8.53675C12.2595 7.99033 12.1551 7.48365 11.9465 7.01671C11.7478 6.53983 11.4696 6.12257 11.112 5.76491C10.7543 5.40726 10.3371 5.12908 9.86018 4.93038C9.39324 4.72175 8.88656 4.61743 8.34014 4.61743ZM8.34014 11.085C7.63477 11.085 7.03371 10.8367 6.53696 10.3399C6.04022 9.84319 5.79184 9.24213 5.79184 8.53675C5.79184 7.83137 6.04022 7.23031 6.53696 6.73356C7.03371 6.23682 7.63477 5.98845 8.34014 5.98845C9.04552 5.98845 9.64658 6.23682 10.1433 6.73356C10.6401 7.23031 10.8884 7.83137 10.8884 8.53675C10.8884 9.24213 10.6401 9.84319 10.1433 10.3399C9.64658 10.8367 9.04552 11.085 8.34014 11.085ZM13.3324 4.46841C13.3324 4.71678 13.243 4.93038 13.0642 5.10921C12.8854 5.28804 12.6668 5.37745 12.4085 5.37745C12.1601 5.37745 11.9465 5.28804 11.7677 5.10921C11.5889 4.93038 11.4994 4.71678 11.4994 4.46841C11.4994 4.2101 11.5889 3.99153 11.7677 3.81271C11.9465 3.63388 12.1601 3.54446 12.4085 3.54446C12.6668 3.54446 12.8854 3.63388 13.0642 3.81271C13.243 3.99153 13.3324 4.2101 13.3324 4.46841Z" fill="white"/>
</svg>
