<svg width="15" height="13" viewBox="0 0 15 13" fill="none" xmlns="http://www.w3.org/2000/svg">
<path d="M1.40625 0.28125C2.16797 0.28125 2.8125 0.925781 2.8125 1.6875C2.8125 2.47852 2.16797 3.09375 1.40625 3.09375C0.615234 3.09375 0 2.47852 0 1.6875C0 0.925781 0.615234 0.28125 1.40625 0.28125ZM1.40625 4.96875C2.16797 4.96875 2.8125 5.61328 2.8125 6.375C2.8125 7.16602 2.16797 7.78125 1.40625 7.78125C0.615234 7.78125 0 7.16602 0 6.375C0 5.61328 0.615234 4.96875 1.40625 4.96875ZM1.40625 9.65625C2.16797 9.65625 2.8125 10.3008 2.8125 11.0625C2.8125 11.8535 2.16797 12.4688 1.40625 12.4688C0.615234 12.4688 0 11.8535 0 11.0625C0 10.3008 0.615234 9.65625 1.40625 9.65625ZM14.5312 10.125C14.7656 10.125 15 10.3594 15 10.5938V11.5312C15 11.7949 14.7656 12 14.5312 12H5.15625C4.89258 12 4.6875 11.7949 4.6875 11.5312V10.5938C4.6875 10.3594 4.89258 10.125 5.15625 10.125H14.5312ZM14.5312 0.75C14.7656 0.75 15 0.984375 15 1.21875V2.15625C15 2.41992 14.7656 2.625 14.5312 2.625H5.15625C4.89258 2.625 4.6875 2.41992 4.6875 2.15625V1.21875C4.6875 0.984375 4.89258 0.75 5.15625 0.75H14.5312ZM14.5312 5.4375C14.7656 5.4375 15 5.67188 15 5.90625V6.84375C15 7.10742 14.7656 7.3125 14.5312 7.3125H5.15625C4.89258 7.3125 4.6875 7.10742 4.6875 6.84375V5.90625C4.6875 5.67188 4.89258 5.4375 5.15625 5.4375H14.5312Z" fill="#808080"/>
</svg>
