<svg width="16" height="13" viewBox="0 0 16 13" fill="none" xmlns="http://www.w3.org/2000/svg">
<path d="M14.7922 10.7078V4.18061C14.6134 4.37931 14.4147 4.56808 14.1961 4.7469C12.686 5.89935 11.4789 6.8531 10.5748 7.60815C10.2867 7.85653 10.0532 8.05026 9.87441 8.18935C9.68565 8.33837 9.43728 8.47746 9.12929 8.60661C8.83125 8.73576 8.54314 8.80034 8.26496 8.80034H8.23515C7.96691 8.80034 7.6788 8.73576 7.37082 8.60661C7.0529 8.47746 6.80453 8.33837 6.6257 8.18935C6.45681 8.05026 6.22334 7.85653 5.92529 7.60815C5.03115 6.8531 3.82406 5.89935 2.30402 4.7469C2.08545 4.56808 1.88676 4.37931 1.70793 4.18061V10.7078C1.70793 10.7774 1.73773 10.842 1.79734 10.9016C1.85695 10.9711 1.91656 11.0009 1.97617 10.991H14.5239C14.5935 10.991 14.6531 10.9612 14.7028 10.9016C14.7524 10.8519 14.7823 10.7873 14.7922 10.7078ZM14.7922 1.76644V1.5578L14.7773 1.45349C14.7673 1.37401 14.7624 1.33427 14.7624 1.33427C14.7624 1.33427 14.7475 1.30943 14.7177 1.25976C14.6879 1.21008 14.663 1.19021 14.6432 1.20015C14.6233 1.21008 14.5836 1.20015 14.5239 1.17034H1.97617C1.90663 1.17034 1.84702 1.20015 1.79734 1.25976C1.74767 1.31937 1.71786 1.38394 1.70793 1.45349C1.70793 2.40724 2.12519 3.21196 2.95972 3.86767C4.05256 4.72207 5.19011 5.62118 6.37236 6.56499C6.4121 6.59479 6.51642 6.67924 6.68531 6.81833C6.84427 6.95742 6.96845 7.0667 7.05787 7.14618C7.14728 7.21573 7.27644 7.30017 7.44533 7.39952C7.60429 7.49887 7.74338 7.57835 7.8626 7.63796C7.99175 7.69757 8.11594 7.72241 8.23515 7.71247H8.26496C8.37424 7.71247 8.49843 7.68763 8.63752 7.63796C8.76667 7.58828 8.90576 7.50881 9.05478 7.39952C9.21374 7.29024 9.34289 7.20579 9.44224 7.14618C9.54159 7.07664 9.66578 6.96735 9.8148 6.81833C9.97376 6.66931 10.0781 6.58486 10.1278 6.56499C11.31 5.62118 12.4475 4.72207 13.5404 3.86767C13.8484 3.62923 14.1365 3.30138 14.4047 2.88411C14.663 2.46685 14.7922 2.09429 14.7922 1.76644ZM15.8801 1.45349V10.7078C15.8801 11.0854 15.7459 11.4083 15.4777 11.6765C15.2194 11.9348 14.9015 12.0689 14.5239 12.0789H1.97617C1.59864 12.0789 1.28073 11.9447 1.02242 11.6765C0.754177 11.3983 0.620056 11.0754 0.620056 10.7078V1.45349C0.620056 1.07596 0.754177 0.753076 1.02242 0.484834C1.28073 0.216592 1.59864 0.0824709 1.97617 0.0824709H14.5239C14.9015 0.0824709 15.2194 0.216592 15.4777 0.484834C15.7459 0.753076 15.8801 1.07596 15.8801 1.45349Z" fill="white"/>
</svg>
