<svg width="20" height="16" viewBox="0 0 20 16" fill="none" xmlns="http://www.w3.org/2000/svg">
<path d="M18.8867 4.36133C19.8535 5.94336 18.9746 8.11133 17.1582 8.3457C17.0117 8.375 16.8945 8.375 16.748 8.375C15.8691 8.375 15.1074 7.99414 14.5801 7.4082C14.0527 7.99414 13.291 8.375 12.4121 8.375C11.5625 8.375 10.7715 7.99414 10.2441 7.4082C9.7168 7.99414 8.95508 8.375 8.10547 8.375C7.22656 8.375 6.46484 7.99414 5.9375 7.4082C5.41016 7.99414 4.64844 8.375 3.76953 8.375C3.62305 8.375 3.50586 8.375 3.35938 8.3457C1.54297 8.11133 0.664062 5.94336 1.66016 4.36133L3.53516 1.31445C3.71094 1.05078 4.0332 0.875 4.35547 0.875H16.1914C16.5137 0.875 16.8066 1.05078 16.9824 1.31445L18.8867 4.36133ZM16.748 9.3125C16.9238 9.3125 17.0996 9.3125 17.2754 9.2832C17.4512 9.2832 17.5977 9.22461 17.7734 9.19531V14.9375C17.7734 15.4648 17.334 15.875 16.8359 15.875H3.71094C3.18359 15.875 2.77344 15.4648 2.77344 14.9375V9.19531C2.91992 9.22461 3.06641 9.25391 3.24219 9.2832C3.41797 9.3125 3.59375 9.3125 3.76953 9.3125C4.0625 9.3125 4.35547 9.2832 4.64844 9.22461V12.125H15.8984V9.22461C16.1621 9.2832 16.4551 9.3125 16.748 9.3125Z" fill="#808080"/>
</svg>
