<svg width="16" height="10" viewBox="0 0 16 10" fill="none" xmlns="http://www.w3.org/2000/svg">
<path d="M15.1641 2.97213C15.2535 2.58467 15.4 2.22949 15.6037 1.90661C15.8074 1.58372 15.9092 1.42228 15.9092 1.42228H13.3609C13.0032 1.19378 12.6257 0.990115 12.2283 0.811287C11.8309 0.642393 11.4186 0.498337 10.9914 0.379119C10.5642 0.2599 10.1271 0.170486 9.68002 0.110876C9.22302 0.0512671 8.75111 0.0214624 8.2643 0.0214624C7.76755 0.0214624 7.28074 0.0512671 6.80387 0.110876C6.33693 0.170486 5.88241 0.2599 5.4403 0.379119C4.9982 0.498337 4.57845 0.647361 4.18106 0.826189C3.78366 1.00502 3.40613 1.20868 3.04848 1.43718H0.6492C0.6492 1.43718 0.751033 1.59614 0.954698 1.91406C1.15836 2.23198 1.3049 2.58467 1.39432 2.97213C1.16582 3.29004 0.984503 3.63776 0.850382 4.01529C0.716261 4.39282 0.6492 4.79518 0.6492 5.22238C0.6492 5.74893 0.748549 6.24567 0.947247 6.71261C1.14595 7.16962 1.41915 7.57198 1.76688 7.9197C2.1146 8.26743 2.52193 8.54064 2.98887 8.73933C3.44587 8.93803 3.93765 9.03738 4.4642 9.03738C5.07023 9.03738 5.63155 8.91071 6.14817 8.65737C6.66478 8.40403 7.09695 8.05879 7.44467 7.62166L8.2643 8.82875L9.06902 7.60676C9.25779 7.83526 9.4689 8.04141 9.70237 8.2252C9.93584 8.409 10.1966 8.57044 10.4847 8.70953C10.9418 8.91816 11.4236 9.03241 11.9303 9.05228C12.437 9.07215 12.9287 8.99764 13.4056 8.82875C13.9024 8.63998 14.3296 8.37174 14.6872 8.02402C15.0548 7.6763 15.3404 7.2789 15.5441 6.83183C15.7478 6.38476 15.8645 5.90789 15.8943 5.40121C15.9241 4.90446 15.8496 4.40772 15.6708 3.91097C15.6012 3.73215 15.5242 3.56325 15.4398 3.40429C15.3553 3.24534 15.2585 3.10128 15.1492 2.97213H15.1641ZM13.1523 8.09853C12.7648 8.23762 12.3699 8.29971 11.9675 8.28481C11.5652 8.26991 11.1802 8.17304 10.8126 7.99422C10.5444 7.88493 10.3059 7.73839 10.0973 7.5546C9.88865 7.3708 9.70486 7.15968 9.5459 6.92125C9.48629 6.8219 9.42916 6.72007 9.37452 6.61575C9.31988 6.51143 9.27269 6.40463 9.23295 6.29535C9.18328 6.1662 9.14602 6.03704 9.12118 5.90789C9.09635 5.77873 9.07399 5.64958 9.05412 5.52043C9.03425 5.25218 9.04419 4.98643 9.08393 4.72315C9.12367 4.45988 9.20315 4.20405 9.32236 3.95568C9.49126 3.58809 9.72473 3.26769 10.0228 2.99448C10.3208 2.72127 10.6636 2.51512 11.051 2.37603C11.4385 2.22701 11.8359 2.16243 12.2432 2.1823C12.6406 2.20217 13.0157 2.29655 13.3684 2.46545C13.721 2.63434 14.0414 2.86284 14.3296 3.15095C14.6077 3.449 14.8213 3.79175 14.9704 4.17922C15.1094 4.57661 15.1691 4.97401 15.1492 5.3714C15.1293 5.77873 15.0374 6.15874 14.8735 6.51143C14.7096 6.86412 14.4786 7.17955 14.1805 7.45773C13.8924 7.73591 13.5497 7.94951 13.1523 8.09853ZM6.9976 6.93615C6.72936 7.33355 6.3717 7.65643 5.92463 7.9048C5.47756 8.15317 4.99075 8.27736 4.4642 8.27736C4.04693 8.27736 3.65451 8.19788 3.28692 8.03892C2.90939 7.87996 2.58402 7.6614 2.31081 7.38322C2.0376 7.10504 1.82152 6.78216 1.66256 6.41457C1.49367 6.03704 1.40922 5.63965 1.40922 5.22238C1.40922 4.80511 1.49367 4.41269 1.66256 4.04509C1.82152 3.66757 2.0376 3.3422 2.31081 3.06899C2.58402 2.79578 2.90939 2.57473 3.28692 2.40584C3.65451 2.24688 4.04693 2.1674 4.4642 2.1674C4.88147 2.1674 5.27886 2.24688 5.65639 2.40584C6.02398 2.57473 6.34686 2.79578 6.62504 3.06899C6.90322 3.3422 7.12179 3.66757 7.28074 4.04509C7.4397 4.41269 7.51918 4.80511 7.51918 5.22238C7.51918 5.27205 7.5167 5.32173 7.51173 5.3714C7.50676 5.42108 7.49931 5.47572 7.48938 5.53533C7.46951 5.79364 7.41735 6.04201 7.3329 6.28045C7.24846 6.51888 7.13669 6.74242 6.9976 6.95105V6.93615ZM2.5269 5.19258C2.5269 5.70919 2.71318 6.15129 3.08573 6.51888C3.45829 6.88648 3.90288 7.07027 4.41949 7.07027C4.93611 7.07027 5.38069 6.88648 5.75325 6.51888C6.12581 6.15129 6.31209 5.70919 6.31209 5.19258C6.31209 4.66603 6.12581 4.21896 5.75325 3.85136C5.38069 3.48377 4.93611 3.29998 4.41949 3.29998C3.90288 3.29998 3.45829 3.48377 3.08573 3.85136C2.71318 4.21896 2.5269 4.66603 2.5269 5.19258ZM10.1867 5.19258C10.1867 5.70919 10.373 6.15129 10.7455 6.51888C11.1181 6.88648 11.5627 7.07027 12.0793 7.07027C12.5959 7.07027 13.0405 6.88648 13.4131 6.51888C13.7856 6.15129 13.9719 5.70919 13.9719 5.19258C13.9719 4.66603 13.7856 4.21896 13.4131 3.85136C13.0405 3.48377 12.5959 3.29998 12.0793 3.29998C11.5627 3.29998 11.1181 3.48377 10.7455 3.85136C10.373 4.21896 10.1867 4.66603 10.1867 5.19258ZM3.1826 5.19258C3.1826 4.84485 3.3043 4.55177 3.54771 4.31334C3.79111 4.0749 4.08171 3.95568 4.41949 3.95568C4.75728 3.95568 5.04788 4.0749 5.29128 4.31334C5.53469 4.55177 5.65639 4.84485 5.65639 5.19258C5.65639 5.53036 5.53717 5.82096 5.29873 6.06436C5.06029 6.30777 4.76721 6.42947 4.41949 6.42947C4.08171 6.42947 3.78863 6.30777 3.54026 6.06436C3.29188 5.82096 3.1677 5.53036 3.1677 5.19258H3.1826ZM10.8275 5.19258C10.8275 4.84485 10.9517 4.55177 11.2001 4.31334C11.4484 4.0749 11.7415 3.95568 12.0793 3.95568C12.4171 3.95568 12.7052 4.0749 12.9436 4.31334C13.1821 4.55177 13.3013 4.84485 13.3013 5.19258C13.3013 5.53036 13.1821 5.82096 12.9436 6.06436C12.7052 6.30777 12.4121 6.42947 12.0644 6.42947C11.7266 6.42947 11.436 6.30777 11.1926 6.06436C10.9492 5.82096 10.8275 5.53036 10.8275 5.19258ZM8.2643 0.677166C8.94981 0.677166 9.60054 0.741742 10.2165 0.870896C10.8325 1.00005 11.4137 1.18385 11.9601 1.42228C11.7514 1.43222 11.5478 1.45457 11.3491 1.48934C11.1504 1.52411 10.9517 1.57627 10.753 1.64582C10.2761 1.82465 9.8514 2.08544 9.47884 2.42819C9.10628 2.77094 8.81568 3.17579 8.60705 3.64273C8.5077 3.85136 8.43071 4.06496 8.37607 4.28353C8.32142 4.5021 8.28417 4.72564 8.2643 4.95414C8.22456 4.45739 8.10037 4.00039 7.89174 3.58312C7.68311 3.15592 7.41238 2.78088 7.07956 2.458C6.74674 2.13511 6.36177 1.88425 5.92463 1.70543C5.48749 1.51666 5.02055 1.41732 4.52381 1.40738C5.07023 1.16894 5.6539 0.987631 6.27484 0.863445C6.89577 0.739259 7.54899 0.677166 8.23449 0.677166H8.2643Z" fill="white"/>
</svg>
